<svg width="233" height="84" viewBox="0 0 233 84" fill="none" xmlns="http://www.w3.org/2000/svg">
<path fill-rule="evenodd" clip-rule="evenodd" d="M0 20C0 17.2386 2.23858 15 5 15H31C33.7614 15 36 17.2386 36 20V70C36 72.7614 33.7614 75 31 75H5C2.23858 75 0 72.7614 0 70V20ZM39 20C39 17.2386 41.2386 15 44 15H70C72.7614 15 75 17.2386 75 20V70C75 72.7614 72.7614 75 70 75H44C41.2386 75 39 72.7614 39 70V20ZM83 15C80.2386 15 78 17.2386 78 20V70C78 72.7614 80.2386 75 83 75H109C111.761 75 114 72.7614 114 70V20C114 17.2386 111.761 15 109 15H83ZM117 20C117 17.2386 119.239 15 122 15H148C150.761 15 153 17.2386 153 20V70C153 72.7614 150.761 75 148 75H122C119.239 75 117 72.7614 117 70V20ZM161 15C158.239 15 156 17.2386 156 20V70C156 72.7614 158.239 75 161 75H187C189.761 75 192 72.7614 192 70V20C192 17.2386 189.761 15 187 15H161Z" fill="#EDEDED"/>
<path fill-rule="evenodd" clip-rule="evenodd" d="M0 20C0 17.2386 2.23858 15 5 15H31C33.7614 15 36 17.2386 36 20V70C36 72.7614 33.7614 75 31 75H5C2.23858 75 0 72.7614 0 70V20ZM39 20C39 17.2386 41.2386 15 44 15H70C72.7614 15 75 17.2386 75 20V70C75 72.7614 72.7614 75 70 75H44C41.2386 75 39 72.7614 39 70V20ZM83 15C80.2386 15 78 17.2386 78 20V70C78 72.7614 80.2386 75 83 75H109C111.761 75 114 72.7614 114 70V20C114 17.2386 111.761 15 109 15H83ZM117 20C117 17.2386 119.239 15 122 15H148C150.761 15 153 17.2386 153 20V70C153 72.7614 150.761 75 148 75H122C119.239 75 117 72.7614 117 70V20ZM161 15C158.239 15 156 17.2386 156 20V70C156 72.7614 158.239 75 161 75H187C189.761 75 192 72.7614 192 70V20C192 17.2386 189.761 15 187 15H161Z" fill="url(#paint0_linear)"/>
<g filter="url(#filter0_d)">
<path d="M7.968 60.352L17.856 44.944C18.336 44.176 18.656 43.696 18.816 43.504C19.936 41.712 20.752 40.224 21.264 39.04C21.776 37.856 22.032 36.432 22.032 34.768C22.032 32.912 21.728 31.488 21.12 30.496C20.512 29.504 19.52 29.008 18.144 29.008C15.072 29.008 13.536 31.392 13.536 36.16V37.456H8.4V36.112C8.4 32.464 9.152 29.664 10.656 27.712C12.16 25.76 14.576 24.784 17.904 24.784C20.976 24.784 23.296 25.664 24.864 27.424C26.432 29.152 27.216 31.616 27.216 34.816C27.216 36.384 27.024 37.792 26.64 39.04C26.288 40.256 25.856 41.312 25.344 42.208C24.832 43.104 24.032 44.384 22.944 46.048L14.016 59.68H26.304V64H7.968V60.352ZM56.5219 64.432C53.4819 64.432 51.1459 63.6 49.5139 61.936C47.8819 60.272 47.0339 57.888 46.9699 54.784V54.352H52.1059C52.1059 56.336 52.4259 57.808 53.0659 58.768C53.7379 59.696 54.9059 60.16 56.5699 60.16C59.4499 60.16 60.8899 57.392 60.8899 51.856V45.952C60.3779 46.784 59.6419 47.44 58.6819 47.92C57.7539 48.4 56.6019 48.64 55.2259 48.64C52.1859 48.64 50.0259 47.68 48.7459 45.76C47.4979 43.808 46.8739 41.024 46.8739 37.408C46.8739 33.6 47.6579 30.544 49.2259 28.24C50.7939 25.936 53.2259 24.784 56.5219 24.784C59.7219 24.784 62.1059 25.968 63.6739 28.336C65.2739 30.672 66.0739 33.728 66.0739 37.504V50.56C66.0739 54.752 65.3379 58.112 63.8659 60.64C62.3939 63.168 59.9459 64.432 56.5219 64.432ZM56.5219 44.752C58.4099 44.752 59.8659 43.856 60.8899 42.064V36.304C60.8899 31.44 59.4339 29.008 56.5219 29.008C54.9219 29.008 53.7699 29.68 53.0659 31.024C52.3939 32.336 52.0579 34.048 52.0579 36.16C52.0579 38.112 52.1379 39.664 52.2979 40.816C52.4579 41.968 52.8579 42.912 53.4979 43.648C54.1379 44.384 55.1459 44.752 56.5219 44.752ZM96.1196 64.432C93.0156 64.432 90.6476 63.568 89.0156 61.84C87.4156 60.08 86.6156 57.616 86.6156 54.448V53.152H91.7036V54.016C91.7676 56 92.1036 57.52 92.7116 58.576C93.3516 59.632 94.4876 60.16 96.1196 60.16C97.8476 60.16 99.0156 59.568 99.6236 58.384C100.264 57.168 100.584 55.376 100.584 53.008C100.584 50.832 100.184 49.136 99.3836 47.92C98.5836 46.672 97.2876 45.984 95.4956 45.856C95.3676 45.824 95.1276 45.808 94.7756 45.808V40.672H95.4476C97.2716 40.608 98.5836 40.128 99.3836 39.232C100.184 38.336 100.584 36.848 100.584 34.768C100.584 32.848 100.264 31.408 99.6236 30.448C98.9836 29.456 97.8316 28.96 96.1676 28.96C94.5036 28.96 93.3516 29.488 92.7116 30.544C92.1036 31.6 91.7676 33.152 91.7036 35.2V36.016H86.6156V34.72C86.6156 31.552 87.4156 29.104 89.0156 27.376C90.6476 25.648 93.0316 24.784 96.1676 24.784C99.3036 24.784 101.672 25.664 103.272 27.424C104.904 29.152 105.72 31.6 105.72 34.768C105.72 37.04 105.224 38.896 104.232 40.336C103.24 41.776 101.88 42.752 100.152 43.264C101.912 43.808 103.272 44.912 104.232 46.576C105.224 48.24 105.72 50.384 105.72 53.008C105.72 56.624 104.936 59.44 103.368 61.456C101.832 63.44 99.4156 64.432 96.1196 64.432ZM136.611 53.584H125.331V48.208L135.459 25.12H141.507V49.024H145.875V53.584H141.507V64H136.611V53.584ZM136.611 49.024V31.36L130.275 49.024H136.611ZM174.214 64.432C171.174 64.432 168.838 63.6 167.206 61.936C165.574 60.272 164.726 57.888 164.662 54.784V54.352H169.798C169.798 56.336 170.118 57.808 170.758 58.768C171.43 59.696 172.598 60.16 174.262 60.16C177.142 60.16 178.582 57.392 178.582 51.856V45.952C178.07 46.784 177.334 47.44 176.374 47.92C175.446 48.4 174.294 48.64 172.918 48.64C169.878 48.64 167.718 47.68 166.438 45.76C165.19 43.808 164.566 41.024 164.566 37.408C164.566 33.6 165.35 30.544 166.918 28.24C168.486 25.936 170.918 24.784 174.214 24.784C177.414 24.784 179.798 25.968 181.366 28.336C182.966 30.672 183.766 33.728 183.766 37.504V50.56C183.766 54.752 183.03 58.112 181.558 60.64C180.086 63.168 177.638 64.432 174.214 64.432ZM174.214 44.752C176.102 44.752 177.558 43.856 178.582 42.064V36.304C178.582 31.44 177.126 29.008 174.214 29.008C172.614 29.008 171.462 29.68 170.758 31.024C170.086 32.336 169.75 34.048 169.75 36.16C169.75 38.112 169.83 39.664 169.99 40.816C170.15 41.968 170.55 42.912 171.19 43.648C171.83 44.384 172.838 44.752 174.214 44.752Z" fill="#4D6A73"/>
</g>
<path fill-rule="evenodd" clip-rule="evenodd" d="M36 47H0V70C0 72.7614 2.23859 75 5 75H31C33.7614 75 36 72.7614 36 70V47ZM39 47H75V70C75 72.7614 72.7614 75 70 75H44C41.2386 75 39 72.7614 39 70V47ZM78 47V70C78 72.7614 80.2386 75 83 75H109C111.761 75 114 72.7614 114 70V47H78ZM117 47V70C117 72.7614 119.239 75 122 75H148C150.761 75 153 72.7614 153 70V47H117ZM156 47V70C156 72.7614 158.239 75 161 75H187C189.761 75 192 72.7614 192 70V47H156Z" fill="url(#paint1_linear)" fill-opacity="0.5"/>
<defs>
<filter id="filter0_d" x="7.968" y="24.784" width="176.798" height="40.648" filterUnits="userSpaceOnUse" color-interpolation-filters="sRGB">
<feFlood flood-opacity="0" result="BackgroundImageFix"/>
<feColorMatrix in="SourceAlpha" type="matrix" values="0 0 0 0 0 0 0 0 0 0 0 0 0 0 0 0 0 0 127 0"/>
<feOffset dx="1" dy="1"/>
<feColorMatrix type="matrix" values="0 0 0 0 1 0 0 0 0 1 0 0 0 0 1 0 0 0 1 0"/>
<feBlend mode="normal" in2="BackgroundImageFix" result="effect1_dropShadow"/>
<feBlend mode="normal" in="SourceGraphic" in2="effect1_dropShadow" result="shape"/>
</filter>
<linearGradient id="paint0_linear" x1="96" y1="15" x2="96" y2="75" gradientUnits="userSpaceOnUse">
<stop stop-opacity="0.09"/>
<stop offset="0.502762" stop-opacity="0"/>
</linearGradient>
<linearGradient id="paint1_linear" x1="96" y1="47" x2="96" y2="75" gradientUnits="userSpaceOnUse">
<stop stop-color="white"/>
<stop offset="1" stop-color="white" stop-opacity="0"/>
</linearGradient>
</defs>
</svg>
