<svg width="48" height="48" viewBox="0 0 48 48" fill="none" xmlns="http://www.w3.org/2000/svg">
<mask id="path-1-inside-1" fill="white">
<path fill-rule="evenodd" clip-rule="evenodd" d="M48 24C48 37.2549 37.2548 48 24 48C10.7452 48 0 37.2549 0 24C0 10.7451 10.7452 0 24 0C37.2548 0 48 10.7451 48 24ZM24.9771 34.5261H23.0934C23.0934 34.5261 18.9371 34.7764 15.2771 30.9658C11.2855 26.8096 7.76025 18.562 7.76025 18.562C7.76025 18.562 7.55707 18.0212 7.77783 17.7598C8.02594 17.4658 8.7019 17.447 8.7019 17.447L13.2047 17.4175C13.2047 17.4175 13.6292 17.4885 13.9329 17.7114C14.1832 17.8955 14.3235 18.2395 14.3235 18.2395C14.3235 18.2395 15.0512 20.0798 16.0151 21.7449C17.8962 24.9956 18.7724 25.7065 19.4111 25.3584C20.3417 24.8506 20.0627 20.7632 20.0627 20.7632C20.0627 20.7632 20.0798 19.2795 19.5943 18.6189C19.2182 18.1067 18.5089 17.9575 18.1957 17.9155C17.9424 17.8818 18.3583 17.2935 18.8973 17.0295C19.7076 16.6326 21.1387 16.6099 22.8295 16.6274C24.1467 16.6406 24.5258 16.7229 25.0409 16.8472C26.2359 17.136 26.1986 18.0605 26.1182 20.0554C26.0942 20.6516 26.0663 21.3433 26.0663 22.1421C26.0663 23.2534 25.8661 24.8181 26.6683 25.3367C27.0131 25.5591 27.8568 25.3699 29.9669 21.7869C30.9671 20.0889 31.717 18.0923 31.717 18.0923C31.717 18.0923 31.8809 17.7363 32.1354 17.5835C32.396 17.4277 32.7473 17.4758 32.7473 17.4758L37.4858 17.4463C37.4858 17.4463 38.9096 17.2764 39.1402 17.9189C39.382 18.5938 38.608 20.1689 36.6721 22.749C34.8337 25.1995 33.9403 26.1001 34.0243 26.8979C34.0855 27.4795 34.6662 28.0063 35.7788 29.0391C38.3 31.3792 38.8223 32.5181 38.9079 32.6597C39.9518 34.3906 37.7502 34.5261 37.7502 34.5261L33.5417 34.5847C33.5417 34.5847 32.6373 34.7642 31.4471 33.9465C30.8246 33.5193 30.2161 32.8215 29.6364 32.157C28.7501 31.1409 27.9308 30.2017 27.2318 30.4233C26.0587 30.7957 26.0955 33.3232 26.0955 33.3232C26.0955 33.3232 26.104 33.863 25.8366 34.1506C25.5461 34.4636 24.9771 34.5261 24.9771 34.5261Z"/>
</mask>
<path d="M23.0934 34.5261V33.5261H23.0634L23.0333 33.5279L23.0934 34.5261ZM24.9771 34.5261V35.5261H25.0319L25.0863 35.5201L24.9771 34.5261ZM15.2771 30.9658L14.5558 31.6585L14.5559 31.6585L15.2771 30.9658ZM7.76025 18.562L6.82415 18.9137L6.83198 18.9346L6.84073 18.955L7.76025 18.562ZM7.77783 17.7598L8.54191 18.4049L8.54201 18.4048L7.77783 17.7598ZM8.7019 17.447L8.69534 16.447L8.68472 16.4471L8.6741 16.4474L8.7019 17.447ZM13.2047 17.4175L13.3698 16.4312L13.2846 16.4169L13.1982 16.4175L13.2047 17.4175ZM13.9329 17.7114L14.5253 16.9058L14.5245 16.9052L13.9329 17.7114ZM14.3235 18.2395L15.2535 17.8718L15.2494 17.8618L14.3235 18.2395ZM16.0151 21.7449L16.8806 21.244L16.8805 21.2439L16.0151 21.7449ZM19.4111 25.3584L19.8897 26.2364L19.8902 26.2362L19.4111 25.3584ZM20.0627 20.7632L19.0628 20.7517L19.0624 20.7915L19.0651 20.8313L20.0627 20.7632ZM19.5943 18.6189L18.7883 19.2108L18.7885 19.2111L19.5943 18.6189ZM18.1957 17.9155L18.3286 16.9244L18.3276 16.9243L18.1957 17.9155ZM18.8973 17.0295L19.3371 17.9277L19.3373 17.9276L18.8973 17.0295ZM22.8295 16.6274L22.8191 17.6274L22.8195 17.6274L22.8295 16.6274ZM25.0409 16.8472L25.2758 15.8752L25.2754 15.8751L25.0409 16.8472ZM26.1182 20.0554L25.119 20.0152L25.119 20.0152L26.1182 20.0554ZM26.6683 25.3367L26.1255 26.1765L26.1263 26.177L26.6683 25.3367ZM29.9669 21.7869L29.1052 21.2793L29.1052 21.2794L29.9669 21.7869ZM31.717 18.0923L30.8087 17.6741L30.7936 17.7069L30.7809 17.7407L31.717 18.0923ZM32.1354 17.5835L31.6223 16.7252L31.6206 16.7262L32.1354 17.5835ZM32.7473 17.4758L32.6116 18.4666L32.6822 18.4763L32.7535 18.4758L32.7473 17.4758ZM37.4858 17.4463L37.4921 18.4463L37.5484 18.4459L37.6043 18.4392L37.4858 17.4463ZM39.1402 17.9189L40.0816 17.5817L40.0814 17.5812L39.1402 17.9189ZM36.6721 22.749L35.8722 22.1489L35.8722 22.1489L36.6721 22.749ZM34.0243 26.8979L33.0298 27.0026L33.0298 27.0026L34.0243 26.8979ZM35.7788 29.0391L35.0985 29.772L35.0985 29.772L35.7788 29.0391ZM38.9079 32.6597L39.7642 32.1432L39.7638 32.1425L38.9079 32.6597ZM37.7502 34.5261L37.7641 35.526L37.7879 35.5257L37.8116 35.5242L37.7502 34.5261ZM33.5417 34.5847L33.5278 33.5848L33.4366 33.5861L33.3471 33.6038L33.5417 34.5847ZM31.4471 33.9465L32.0133 33.1223L32.013 33.1221L31.4471 33.9465ZM29.6364 32.157L28.8827 32.8143L28.8828 32.8144L29.6364 32.157ZM27.2318 30.4233L26.9295 29.4701L26.9292 29.4702L27.2318 30.4233ZM26.0955 33.3232L25.0956 33.3378L25.0956 33.3391L26.0955 33.3232ZM25.8366 34.1506L25.1042 33.4697L25.1036 33.4704L25.8366 34.1506ZM24 49C37.8071 49 49 37.8072 49 24H47C47 36.7026 36.7025 47 24 47V49ZM-1 24C-1 37.8072 10.1929 49 24 49V47C11.2975 47 1 36.7026 1 24H-1ZM24 -1C10.1929 -1 -1 10.1928 -1 24H1C1 11.2974 11.2975 1 24 1V-1ZM49 24C49 10.1928 37.8071 -1 24 -1V1C36.7025 1 47 11.2974 47 24H49ZM23.0934 35.5261H24.9771V33.5261H23.0934V35.5261ZM14.5559 31.6585C16.5307 33.7146 18.6522 34.6856 20.2913 35.1388C21.1089 35.3648 21.806 35.462 22.3064 35.5024C22.5567 35.5227 22.7587 35.5287 22.9027 35.5294C22.9748 35.5298 23.0325 35.5288 23.0747 35.5276C23.0957 35.527 23.113 35.5263 23.1262 35.5257C23.1327 35.5254 23.1383 35.5252 23.1429 35.5249C23.1452 35.5248 23.1472 35.5247 23.149 35.5246C23.1499 35.5245 23.1507 35.5245 23.1515 35.5244C23.1518 35.5244 23.1524 35.5244 23.1526 35.5244C23.1531 35.5243 23.1535 35.5243 23.0934 34.5261C23.0333 33.5279 23.0338 33.5279 23.0342 33.5279C23.0344 33.5279 23.0348 33.5278 23.035 33.5278C23.0355 33.5278 23.036 33.5278 23.0364 33.5278C23.0371 33.5277 23.0377 33.5277 23.0379 33.5277C23.0385 33.5276 23.038 33.5277 23.0367 33.5277C23.0339 33.5279 23.0273 33.5281 23.0171 33.5284C22.9966 33.529 22.9614 33.5297 22.9127 33.5294C22.8152 33.529 22.6638 33.5248 22.4673 33.5089C22.0739 33.4772 21.5032 33.3988 20.8243 33.2111C19.4702 32.8367 17.6835 32.0276 15.9983 30.2731L14.5559 31.6585ZM7.76025 18.562C6.84073 18.955 6.84079 18.9552 6.84086 18.9553C6.8409 18.9554 6.84098 18.9556 6.84107 18.9558C6.84123 18.9562 6.84145 18.9567 6.84172 18.9574C6.84227 18.9586 6.84303 18.9604 6.84401 18.9627C6.84595 18.9672 6.84876 18.9737 6.8524 18.9822C6.85968 18.999 6.87032 19.0236 6.88424 19.0555C6.91206 19.1193 6.95298 19.2124 7.00623 19.3318C7.11271 19.5706 7.26862 19.9147 7.46798 20.34C7.86645 21.1902 8.43974 22.3672 9.13998 23.6768C10.5286 26.2738 12.4604 29.4766 14.5558 31.6585L15.9984 30.2731C14.1023 28.2988 12.2756 25.2996 10.9037 22.7338C10.2237 21.462 9.66617 20.3174 9.27891 19.4912C9.08541 19.0784 8.93472 18.7457 8.83283 18.5172C8.78189 18.403 8.74316 18.3149 8.7174 18.2558C8.70452 18.2263 8.69488 18.204 8.68858 18.1894C8.68543 18.1821 8.68311 18.1767 8.68164 18.1733C8.68091 18.1716 8.68038 18.1704 8.68007 18.1697C8.67992 18.1693 8.67981 18.1691 8.67976 18.1689C8.67974 18.1689 8.67974 18.1689 8.67973 18.1689C8.67975 18.1689 8.67978 18.169 7.76025 18.562ZM7.01375 17.1146C6.60608 17.5975 6.66738 18.1911 6.69567 18.3958C6.71541 18.5387 6.74584 18.6618 6.77019 18.7473C6.78268 18.7912 6.79439 18.828 6.80375 18.8559C6.80845 18.8699 6.81261 18.8819 6.81606 18.8916C6.81778 18.8964 6.81933 18.9007 6.82069 18.9044C6.82137 18.9062 6.82199 18.908 6.82257 18.9095C6.82286 18.9103 6.82314 18.911 6.8234 18.9117C6.82353 18.9121 6.82366 18.9124 6.82379 18.9128C6.82385 18.9129 6.82394 18.9132 6.82397 18.9133C6.82406 18.9135 6.82415 18.9137 7.76025 18.562C8.69636 18.2103 8.69645 18.2105 8.69653 18.2108C8.69656 18.2108 8.69665 18.2111 8.6967 18.2112C8.69682 18.2115 8.69693 18.2118 8.69703 18.2121C8.69725 18.2127 8.69745 18.2132 8.69764 18.2137C8.69803 18.2148 8.69837 18.2157 8.69867 18.2165C8.69927 18.2181 8.6997 18.2194 8.7 18.2202C8.70057 18.2218 8.70059 18.2219 8.70016 18.2206C8.69927 18.2179 8.69683 18.2105 8.69372 18.1996C8.68687 18.1755 8.6803 18.1471 8.67684 18.122C8.67276 18.0925 8.67722 18.0982 8.67268 18.1313C8.66825 18.1636 8.64684 18.2806 8.54191 18.4049L7.01375 17.1146ZM8.7019 17.447C8.6741 16.4474 8.67389 16.4474 8.67368 16.4474C8.67361 16.4474 8.67339 16.4474 8.67324 16.4474C8.67294 16.4474 8.67264 16.4475 8.67231 16.4475C8.67167 16.4475 8.67099 16.4475 8.67026 16.4475C8.6688 16.4476 8.66716 16.4476 8.66536 16.4477C8.66175 16.4478 8.65745 16.448 8.65249 16.4482C8.6426 16.4486 8.63003 16.4492 8.6151 16.45C8.58534 16.4518 8.5456 16.4545 8.49832 16.459C8.40542 16.4678 8.27527 16.4839 8.13001 16.514C7.91176 16.5592 7.37427 16.6875 7.01366 17.1148L8.54201 18.4048C8.46925 18.491 8.40763 18.5119 8.42856 18.5027C8.44227 18.4967 8.4777 18.4844 8.53581 18.4724C8.59055 18.461 8.6449 18.454 8.68649 18.4501C8.70646 18.4482 8.72148 18.4472 8.72965 18.4468C8.73368 18.4465 8.73589 18.4464 8.73601 18.4464C8.73607 18.4464 8.73559 18.4464 8.73456 18.4465C8.73404 18.4465 8.73338 18.4465 8.73257 18.4466C8.73217 18.4466 8.73173 18.4466 8.73125 18.4466C8.73101 18.4466 8.73076 18.4466 8.7305 18.4466C8.73038 18.4466 8.73018 18.4466 8.73011 18.4466C8.72991 18.4466 8.7297 18.4466 8.7019 17.447ZM13.1982 16.4175L8.69534 16.447L8.70846 18.447L13.2113 18.4175L13.1982 16.4175ZM14.5245 16.9052C14.248 16.7023 13.9499 16.5887 13.7568 16.5275C13.6537 16.4949 13.5639 16.4721 13.4978 16.457C13.4645 16.4494 13.4365 16.4437 13.4149 16.4394C13.4041 16.4373 13.3948 16.4356 13.3873 16.4342C13.3835 16.4336 13.3801 16.433 13.3772 16.4325C13.3758 16.4322 13.3744 16.432 13.3732 16.4318C13.3726 16.4317 13.372 16.4316 13.3714 16.4315C13.3711 16.4314 13.3708 16.4314 13.3706 16.4313C13.3704 16.4313 13.3703 16.4313 13.3702 16.4313C13.37 16.4312 13.3698 16.4312 13.2047 17.4175C13.0396 18.4038 13.0394 18.4037 13.0392 18.4037C13.0392 18.4037 13.039 18.4037 13.0389 18.4036C13.0386 18.4036 13.0384 18.4036 13.0382 18.4035C13.0377 18.4034 13.0373 18.4034 13.0369 18.4033C13.036 18.4032 13.0353 18.403 13.0347 18.4029C13.0334 18.4027 13.0324 18.4025 13.0318 18.4024C13.0307 18.4022 13.0308 18.4022 13.0322 18.4025C13.035 18.403 13.0425 18.4045 13.0537 18.4071C13.0767 18.4123 13.112 18.4212 13.153 18.4342C13.248 18.4643 13.314 18.4977 13.3412 18.5176L14.5245 16.9052ZM14.3235 18.2395C15.2494 17.8618 15.2493 17.8616 15.2493 17.8614C15.2492 17.8613 15.2491 17.8611 15.2491 17.861C15.249 17.8607 15.2489 17.8604 15.2487 17.8602C15.2485 17.8596 15.2483 17.859 15.248 17.8584C15.2475 17.8571 15.2469 17.8558 15.2464 17.8544C15.2452 17.8515 15.2438 17.8483 15.2423 17.8448C15.2393 17.8377 15.2356 17.8291 15.2313 17.8194C15.2226 17.7998 15.2112 17.7749 15.1971 17.7459C15.1692 17.6884 15.1289 17.6111 15.0762 17.5245C14.9801 17.3666 14.8016 17.109 14.5253 16.9058L13.3404 18.517C13.3144 18.4979 13.3313 18.5044 13.3679 18.5645C13.3815 18.5869 13.392 18.6071 13.3982 18.6199C13.4011 18.6259 13.4027 18.6294 13.4027 18.6294C13.4026 18.6293 13.4022 18.6284 13.4014 18.6264C13.401 18.6254 13.4004 18.6242 13.3998 18.6226C13.3995 18.6219 13.3991 18.621 13.3988 18.6201C13.3986 18.6197 13.3984 18.6192 13.3982 18.6187C13.3981 18.6185 13.398 18.6182 13.3979 18.618C13.3978 18.6178 13.3977 18.6177 13.3977 18.6176C13.3976 18.6174 13.3976 18.6172 14.3235 18.2395ZM16.8805 21.2439C16.4215 20.4509 16.0139 19.6073 15.7189 18.9555C15.5721 18.6311 15.4547 18.3577 15.3744 18.1663C15.3343 18.0706 15.3035 17.9956 15.283 17.9452C15.2728 17.92 15.2651 17.9009 15.2601 17.8885C15.2576 17.8823 15.2558 17.8778 15.2547 17.875C15.2541 17.8736 15.2537 17.8726 15.2535 17.8721C15.2534 17.8718 15.2534 17.8716 15.2533 17.8716C15.2533 17.8716 15.2533 17.8716 15.2534 17.8716C15.2534 17.8716 15.2534 17.8717 15.2534 17.8717C15.2534 17.8717 15.2534 17.8718 14.3235 18.2395C13.3936 18.6072 13.3936 18.6073 13.3936 18.6074C13.3936 18.6074 13.3937 18.6075 13.3937 18.6076C13.3937 18.6077 13.3938 18.6079 13.3939 18.6081C13.394 18.6085 13.3943 18.609 13.3945 18.6096C13.395 18.6109 13.3957 18.6126 13.3965 18.6147C13.3982 18.6189 13.4006 18.6249 13.4037 18.6326C13.4098 18.648 13.4187 18.6701 13.4303 18.6985C13.4533 18.7552 13.4869 18.837 13.5301 18.9399C13.6164 19.1456 13.7412 19.4363 13.8968 19.7801C14.2066 20.4647 14.6448 21.3738 15.1496 22.2459L16.8805 21.2439ZM18.9326 24.4804C19.0196 24.4329 19.1355 24.43 19.1976 24.4511C19.2074 24.4544 19.1088 24.4195 18.8904 24.1984C18.4537 23.7564 17.8182 22.8641 16.8806 21.244L15.1496 22.2457C16.0932 23.8763 16.8363 24.9649 17.4676 25.604C17.7832 25.9235 18.1411 26.2042 18.5536 26.3445C19.0183 26.5026 19.4833 26.458 19.8897 26.2364L18.9326 24.4804ZM20.0627 20.7632C19.0651 20.8313 19.0651 20.8312 19.0651 20.8311C19.0651 20.8311 19.065 20.831 19.065 20.831C19.065 20.831 19.065 20.831 19.0651 20.8311C19.0651 20.8313 19.0651 20.8317 19.0651 20.8324C19.0652 20.8337 19.0654 20.836 19.0656 20.8392C19.066 20.8457 19.0666 20.8559 19.0675 20.8695C19.0691 20.8968 19.0715 20.938 19.0742 20.9913C19.0797 21.0978 19.0867 21.2521 19.0922 21.4394C19.1034 21.8159 19.1087 22.3169 19.0868 22.8275C19.0645 23.347 19.0155 23.8349 18.931 24.2017C18.8886 24.3859 18.8457 24.5013 18.8147 24.5624C18.7779 24.6348 18.798 24.5538 18.9321 24.4806L19.8902 26.2362C20.2569 26.0361 20.4719 25.7162 20.5979 25.4679C20.7298 25.2082 20.8177 24.9211 20.88 24.6506C21.0049 24.1082 21.0607 23.4791 21.085 22.9132C21.1096 22.3385 21.1034 21.7859 21.0913 21.3801C21.0853 21.1763 21.0777 21.0073 21.0716 20.8884C21.0685 20.8288 21.0658 20.7817 21.0638 20.7489C21.0628 20.7325 21.062 20.7197 21.0614 20.7106C21.0612 20.7061 21.0609 20.7025 21.0607 20.6999C21.0607 20.6986 21.0606 20.6976 21.0605 20.6968C21.0605 20.6964 21.0605 20.696 21.0605 20.6957C21.0605 20.6956 21.0604 20.6954 21.0604 20.6954C21.0604 20.6952 21.0604 20.6951 20.0627 20.7632ZM18.7885 19.2111C18.8648 19.3149 18.9629 19.6177 19.0182 20.0622C19.0421 20.2544 19.0534 20.4316 19.0586 20.5611C19.0612 20.6252 19.0622 20.6762 19.0626 20.7096C19.0628 20.7263 19.0628 20.7385 19.0628 20.7458C19.0628 20.7494 19.0628 20.7517 19.0628 20.7527C19.0628 20.7532 19.0628 20.7534 19.0628 20.7532C19.0628 20.7531 19.0628 20.753 19.0628 20.7527C19.0628 20.7526 19.0628 20.7524 19.0628 20.7522C19.0628 20.7522 19.0628 20.752 19.0628 20.752C19.0628 20.7518 19.0628 20.7517 20.0627 20.7632C21.0627 20.7747 21.0627 20.7745 21.0627 20.7744C21.0627 20.7743 21.0627 20.7741 21.0627 20.774C21.0627 20.7737 21.0627 20.7734 21.0627 20.7731C21.0627 20.7725 21.0627 20.7718 21.0627 20.771C21.0627 20.7694 21.0627 20.7674 21.0628 20.7651C21.0628 20.7605 21.0628 20.7544 21.0628 20.747C21.0628 20.7321 21.0628 20.7118 21.0625 20.6867C21.0619 20.6364 21.0604 20.5663 21.057 20.481C21.0502 20.3117 21.0355 20.0767 21.0029 19.8153C20.9454 19.3529 20.8094 18.5836 20.4001 18.0267L18.7885 19.2111ZM18.0628 18.9067C18.1708 18.9211 18.3374 18.9536 18.4965 19.0179C18.6607 19.0844 18.7487 19.1569 18.7883 19.2108L20.4003 18.027C20.0638 17.5687 19.6091 17.3105 19.2464 17.1638C18.8785 17.0151 18.5338 16.9519 18.3286 16.9244L18.0628 18.9067ZM18.4576 16.1314C18.0376 16.337 17.6796 16.6552 17.4524 16.9548C17.3542 17.0844 17.194 17.3213 17.1392 17.6189C17.1109 17.7727 17.0865 18.0792 17.2721 18.3906C17.4812 18.7415 17.8185 18.8742 18.0639 18.9068L18.3276 16.9243C18.5096 16.9485 18.8045 17.0554 18.9901 17.3666C19.152 17.6384 19.1227 17.8913 19.1062 17.9811C19.075 18.1506 19.0049 18.2176 19.0464 18.1629C19.0986 18.094 19.218 17.986 19.3371 17.9277L18.4576 16.1314ZM22.8399 15.6275C21.9956 15.6187 21.1744 15.6191 20.4543 15.6762C19.7527 15.7317 19.0373 15.8474 18.4574 16.1315L19.3373 17.9276C19.5677 17.8147 19.973 17.7205 20.6122 17.6699C21.2329 17.6207 21.9726 17.6186 22.8191 17.6274L22.8399 15.6275ZM25.2754 15.8751C24.6775 15.7308 24.2223 15.6413 22.8395 15.6275L22.8195 17.6274C24.0712 17.6399 24.374 17.715 24.8064 17.8193L25.2754 15.8751ZM27.1174 20.0957C27.1548 19.1672 27.2016 18.259 27.0276 17.5675C26.9303 17.1808 26.7515 16.7928 26.4211 16.4721C26.0939 16.1547 25.693 15.976 25.2758 15.8752L24.806 17.8192C24.8965 17.8411 24.9524 17.8635 24.985 17.8798C25.0156 17.8952 25.0263 17.9055 25.0283 17.9074C25.0299 17.909 25.0354 17.9142 25.0445 17.9314C25.0547 17.9506 25.0712 17.9884 25.0881 18.0556C25.174 18.3972 25.162 18.9487 25.119 20.0152L27.1174 20.0957ZM27.0663 22.1421C27.0663 21.3657 27.0934 20.6923 27.1174 20.0956L25.119 20.0152C25.0951 20.6109 25.0663 21.3208 25.0663 22.1421H27.0663ZM27.2112 24.4969C27.2387 24.5147 27.1108 24.4437 27.063 23.8775C27.0169 23.3323 27.0663 22.8137 27.0663 22.1421H25.0663C25.0663 22.5818 25.0156 23.4012 25.0701 24.0458C25.1227 24.6695 25.2957 25.6401 26.1255 26.1765L27.2112 24.4969ZM29.1052 21.2794C28.0619 23.051 27.386 23.885 26.9856 24.2465C26.7858 24.4268 26.7213 24.4276 26.7769 24.4129C26.8783 24.3861 27.0519 24.3941 27.2104 24.4963L26.1263 26.177C26.4572 26.3905 26.8655 26.4582 27.2881 26.3465C27.6647 26.2469 28.0077 26.0181 28.3257 25.7311C28.9608 25.1578 29.7618 24.1057 30.8285 22.2943L29.1052 21.2794ZM31.717 18.0923C30.7809 17.7407 30.7809 17.7406 30.7809 17.7405C30.781 17.7405 30.781 17.7405 30.781 17.7405C30.781 17.7404 30.781 17.7404 30.781 17.7404C30.781 17.7405 30.7809 17.7407 30.7808 17.7409C30.7806 17.7415 30.7802 17.7426 30.7796 17.7441C30.7785 17.7471 30.7766 17.752 30.7741 17.7587C30.769 17.7721 30.7611 17.7926 30.7505 17.8198C30.7294 17.8742 30.6978 17.955 30.6564 18.0577C30.5737 18.2634 30.4528 18.5561 30.3015 18.9006C29.9969 19.5939 29.5773 20.4779 29.1052 21.2793L30.8285 22.2944C31.3566 21.3978 31.8121 20.4345 32.1326 19.705C32.2938 19.3381 32.4229 19.0256 32.512 18.8039C32.5567 18.6929 32.5914 18.6044 32.6152 18.543C32.6271 18.5123 32.6363 18.4883 32.6427 18.4716C32.6459 18.4632 32.6484 18.4567 32.6501 18.4521C32.651 18.4497 32.6517 18.4479 32.6522 18.4465C32.6525 18.4459 32.6527 18.4453 32.6528 18.4449C32.6529 18.4446 32.653 18.4445 32.653 18.4443C32.6531 18.4442 32.6531 18.4441 32.6531 18.4441C32.6532 18.444 32.6532 18.4439 31.717 18.0923ZM31.6206 16.7262C31.3064 16.9149 31.1031 17.1855 31.0013 17.3367C30.9431 17.4231 30.8982 17.501 30.867 17.5585C30.8513 17.5877 30.8385 17.6127 30.8288 17.6322C30.824 17.6419 30.8199 17.6504 30.8165 17.6574C30.8148 17.6609 30.8133 17.6641 30.812 17.6669C30.8114 17.6683 30.8108 17.6696 30.8102 17.6708C30.8099 17.6714 30.8097 17.6719 30.8094 17.6725C30.8093 17.6728 30.8092 17.673 30.809 17.6733C30.809 17.6734 30.8089 17.6736 30.8089 17.6737C30.8088 17.6739 30.8087 17.6741 31.717 18.0923C32.6254 18.5105 32.6253 18.5107 32.6252 18.5109C32.6252 18.5109 32.6251 18.5111 32.6251 18.5112C32.6249 18.5115 32.6248 18.5117 32.6247 18.5119C32.6245 18.5124 32.6243 18.5129 32.6241 18.5133C32.6237 18.5141 32.6233 18.5149 32.623 18.5156C32.6223 18.5171 32.6218 18.5182 32.6214 18.5191C32.6206 18.5208 32.6202 18.5215 32.6203 18.5212C32.6206 18.5206 32.6226 18.5166 32.6262 18.51C32.6338 18.496 32.6457 18.4754 32.6603 18.4537C32.7041 18.3887 32.71 18.4049 32.6502 18.4408L31.6206 16.7262ZM32.7473 17.4758C32.8829 16.4851 32.8827 16.485 32.8824 16.485C32.8823 16.485 32.882 16.485 32.8819 16.4849C32.8815 16.4849 32.8811 16.4848 32.8808 16.4848C32.88 16.4847 32.8793 16.4846 32.8785 16.4845C32.8769 16.4843 32.8752 16.484 32.8734 16.4838C32.8699 16.4834 32.8659 16.4829 32.8616 16.4824C32.853 16.4813 32.8427 16.4802 32.8311 16.479C32.8079 16.4767 32.7786 16.4742 32.7443 16.4723C32.6766 16.4685 32.5844 16.4665 32.4773 16.4732C32.2817 16.4853 31.9474 16.5308 31.6223 16.7252L32.6485 18.4418C32.584 18.4804 32.5556 18.4721 32.6008 18.4693C32.6141 18.4685 32.626 18.4688 32.6323 18.4692C32.635 18.4693 32.6352 18.4694 32.6322 18.4691C32.6307 18.469 32.6283 18.4687 32.6249 18.4683C32.6232 18.4681 32.6213 18.4679 32.619 18.4676C32.6179 18.4674 32.6168 18.4673 32.6155 18.4671C32.6149 18.467 32.6143 18.4669 32.6136 18.4669C32.6133 18.4668 32.613 18.4668 32.6126 18.4667C32.6124 18.4667 32.6122 18.4667 32.6121 18.4667C32.6119 18.4666 32.6116 18.4666 32.7473 17.4758ZM37.4796 16.4463L32.741 16.4758L32.7535 18.4758L37.4921 18.4463L37.4796 16.4463ZM40.0814 17.5812C39.899 17.0728 39.5018 16.7998 39.1938 16.6616C38.8884 16.5246 38.5684 16.4704 38.3244 16.4465C38.0704 16.4215 37.8353 16.4236 37.669 16.4307C37.5842 16.4343 37.5132 16.4395 37.4617 16.4439C37.4358 16.4462 37.4146 16.4482 37.3987 16.4499C37.3907 16.4507 37.3841 16.4514 37.3788 16.452C37.3762 16.4523 37.3739 16.4526 37.372 16.4528C37.3711 16.4529 37.3702 16.453 37.3694 16.4531C37.369 16.4531 37.3686 16.4532 37.3683 16.4532C37.3681 16.4532 37.3679 16.4533 37.3678 16.4533C37.3676 16.4533 37.3673 16.4533 37.4858 17.4463C37.6043 18.4392 37.6041 18.4393 37.6039 18.4393C37.6038 18.4393 37.6036 18.4393 37.6035 18.4393C37.6032 18.4394 37.603 18.4394 37.6028 18.4394C37.6024 18.4395 37.602 18.4395 37.6017 18.4396C37.6012 18.4396 37.6009 18.4396 37.601 18.4396C37.6012 18.4396 37.6025 18.4395 37.6051 18.4392C37.6101 18.4387 37.6197 18.4377 37.6333 18.4366C37.6605 18.4342 37.7026 18.4311 37.7548 18.4289C37.8627 18.4242 37.9979 18.424 38.1287 18.4368C38.2695 18.4507 38.3487 18.4745 38.3751 18.4864C38.3989 18.4971 38.2661 18.4438 38.199 18.2567L40.0814 17.5812ZM37.472 23.3492C38.4537 22.0408 39.1711 20.9481 39.615 20.0711C39.8365 19.6334 40.0068 19.2169 40.1004 18.8319C40.1903 18.4625 40.2366 18.0142 40.0816 17.5817L38.1988 18.2562C38.1647 18.1611 38.2049 18.1628 38.1571 18.3591C38.1132 18.5399 38.0143 18.805 37.8305 19.1679C37.4639 19.8922 36.8264 20.8772 35.8722 22.1489L37.472 23.3492ZM35.0188 26.7933C35.02 26.8048 34.9936 26.6625 35.446 26.0174C35.8811 25.397 36.5127 24.6278 37.472 23.3492L35.8722 22.1489C34.993 23.3207 34.2588 24.227 33.8086 24.869C33.3757 25.4863 32.9446 26.1933 33.0298 27.0026L35.0188 26.7933ZM36.4591 28.3061C35.8836 27.772 35.5087 27.4252 35.2598 27.1407C35.0117 26.8573 35.0167 26.7737 35.0188 26.7933L33.0298 27.0026C33.0931 27.6037 33.419 28.0743 33.7548 28.4579C34.0896 28.8405 34.5614 29.2734 35.0985 29.772L36.4591 28.3061ZM39.7638 32.1425C39.7647 32.144 39.7744 32.1601 39.7262 32.0734C39.6933 32.0142 39.6486 31.936 39.5892 31.8394C39.4705 31.6463 39.2988 31.3893 39.0501 31.0651C38.5537 30.418 37.7531 29.5072 36.4591 28.3061L35.0985 29.772C36.3257 30.911 37.0469 31.7397 37.4633 32.2825C37.8752 32.8193 37.9814 33.0599 38.052 33.1769L39.7638 32.1425ZM37.7502 34.5261C37.8116 35.5242 37.812 35.5242 37.8124 35.5242C37.8126 35.5242 37.813 35.5241 37.8133 35.5241C37.8139 35.5241 37.8145 35.5241 37.8152 35.524C37.8166 35.5239 37.818 35.5238 37.8197 35.5237C37.8229 35.5235 37.8267 35.5232 37.8311 35.5229C37.8397 35.5222 37.8506 35.5214 37.8635 35.5202C37.8891 35.5179 37.923 35.5145 37.9637 35.5096C38.0444 35.4997 38.1548 35.4834 38.2826 35.4567C38.525 35.406 38.8883 35.3061 39.2324 35.101C39.5818 34.8928 39.9991 34.5197 40.1414 33.9082C40.2817 33.3052 40.1003 32.7006 39.7642 32.1432L38.0516 33.1761C38.2374 33.4842 38.1723 33.5457 38.1934 33.4549C38.2165 33.3556 38.2791 33.3409 38.2086 33.383C38.1328 33.4281 38.011 33.4703 37.8732 33.4991C37.8108 33.5121 37.7574 33.5199 37.7218 33.5243C37.7043 33.5264 37.6919 33.5276 37.6858 33.5281C37.6828 33.5284 37.6815 33.5285 37.6819 33.5285C37.6821 33.5285 37.6828 33.5284 37.6839 33.5283C37.6845 33.5283 37.6851 33.5282 37.686 33.5282C37.6864 33.5282 37.6868 33.5281 37.6873 33.5281C37.6875 33.5281 37.6879 33.5281 37.688 33.5281C37.6884 33.528 37.6888 33.528 37.7502 34.5261ZM33.5557 35.5846L37.7641 35.526L37.7363 33.5262L33.5278 33.5848L33.5557 35.5846ZM30.8809 34.7708C31.6065 35.2692 32.2734 35.4818 32.7896 35.5607C33.0454 35.5999 33.2596 35.6055 33.421 35.5992C33.5016 35.5961 33.5691 35.5899 33.622 35.5834C33.6485 35.5802 33.6713 35.5769 33.6904 35.5738C33.7 35.5722 33.7086 35.5708 33.7163 35.5694C33.7201 35.5687 33.7237 35.568 33.727 35.5674C33.7287 35.5671 33.7303 35.5668 33.7319 35.5665C33.7327 35.5663 33.7334 35.5662 33.7342 35.566C33.7345 35.566 33.7351 35.5658 33.7353 35.5658C33.7358 35.5657 33.7364 35.5656 33.5417 34.5847C33.3471 33.6038 33.3477 33.6037 33.3482 33.6036C33.3484 33.6036 33.3489 33.6035 33.3492 33.6034C33.3499 33.6033 33.3506 33.6032 33.3513 33.603C33.3526 33.6028 33.3539 33.6025 33.3551 33.6023C33.3576 33.6018 33.3599 33.6014 33.362 33.601C33.3661 33.6003 33.3695 33.5997 33.3722 33.5993C33.3774 33.5984 33.3797 33.5982 33.3791 33.5982C33.378 33.5984 33.3655 33.5999 33.3427 33.6007C33.2973 33.6025 33.211 33.6019 33.092 33.5837C32.8583 33.548 32.4779 33.4415 32.0133 33.1223L30.8809 34.7708ZM28.8828 32.8144C29.4365 33.4491 30.1325 34.2571 30.8812 34.771L32.013 33.1221C31.5168 32.7815 30.9957 32.194 30.3899 31.4996L28.8828 32.8144ZM27.534 31.3766C27.3477 31.4356 27.3483 31.283 27.7256 31.5958C28.0529 31.8672 28.4218 32.2859 28.8827 32.8143L30.39 31.4997C29.9646 31.012 29.4808 30.453 29.0021 30.0562C28.5735 29.7008 27.8149 29.1894 26.9295 29.4701L27.534 31.3766ZM26.0955 33.3232C27.0954 33.3087 27.0954 33.3089 27.0954 33.3091C27.0954 33.3092 27.0954 33.3094 27.0954 33.3095C27.0954 33.3097 27.0954 33.3099 27.0954 33.3101C27.0954 33.3104 27.0954 33.3105 27.0954 33.3105C27.0954 33.3106 27.0954 33.31 27.0954 33.3089C27.0953 33.3067 27.0953 33.3022 27.0953 33.2957C27.0953 33.2825 27.0955 33.261 27.096 33.2323C27.0971 33.1747 27.0997 33.0889 27.1062 32.9837C27.1193 32.7701 27.1471 32.4913 27.2038 32.2115C27.2622 31.923 27.3414 31.684 27.4325 31.521C27.5238 31.3574 27.5715 31.3647 27.5343 31.3765L26.9292 29.4702C26.3054 29.6682 25.9179 30.131 25.6862 30.5461C25.4541 30.9617 25.3226 31.4244 25.2436 31.8144C25.1629 32.2129 25.1266 32.5893 25.1099 32.8613C25.1015 32.9989 25.0978 33.1134 25.0963 33.1955C25.0956 33.2366 25.0954 33.2698 25.0953 33.2939C25.0953 33.3059 25.0954 33.3157 25.0954 33.323C25.0954 33.3267 25.0955 33.3298 25.0955 33.3323C25.0955 33.3335 25.0955 33.3346 25.0955 33.3355C25.0955 33.336 25.0955 33.3364 25.0956 33.3368C25.0956 33.337 25.0956 33.3372 25.0956 33.3373C25.0956 33.3376 25.0956 33.3378 26.0955 33.3232ZM26.569 34.8316C26.8983 34.4773 27.0074 34.0418 27.05 33.8092C27.0744 33.6756 27.0855 33.5581 27.0907 33.4733C27.0934 33.4302 27.0946 33.3938 27.0951 33.3658C27.0954 33.3518 27.0955 33.3398 27.0955 33.33C27.0955 33.3252 27.0955 33.3208 27.0954 33.317C27.0954 33.3151 27.0954 33.3134 27.0954 33.3118C27.0954 33.311 27.0954 33.3102 27.0954 33.3095C27.0954 33.3091 27.0954 33.3088 27.0953 33.3084C27.0953 33.3083 27.0953 33.308 27.0953 33.3079C27.0953 33.3077 27.0953 33.3074 26.0955 33.3232C25.0956 33.3391 25.0956 33.3388 25.0956 33.3386C25.0956 33.3385 25.0956 33.3383 25.0956 33.3381C25.0956 33.3378 25.0956 33.3375 25.0956 33.3372C25.0955 33.3366 25.0955 33.336 25.0955 33.3355C25.0955 33.3344 25.0955 33.3334 25.0955 33.3326C25.0955 33.3309 25.0955 33.3296 25.0955 33.3287C25.0955 33.327 25.0955 33.3269 25.0955 33.3282C25.0954 33.3309 25.0952 33.3389 25.0945 33.3509C25.0929 33.3762 25.0895 33.4117 25.0827 33.449C25.0627 33.5582 25.0423 33.5363 25.1042 33.4697L26.569 34.8316ZM24.9771 34.5261C25.0863 35.5201 25.0865 35.5201 25.0868 35.5201C25.0869 35.5201 25.0871 35.5201 25.0873 35.52C25.0876 35.52 25.0879 35.52 25.0883 35.5199C25.089 35.5198 25.0898 35.5198 25.0905 35.5197C25.0921 35.5195 25.0938 35.5193 25.0957 35.5191C25.0994 35.5186 25.1037 35.5181 25.1086 35.5175C25.1184 35.5163 25.1304 35.5147 25.1445 35.5126C25.1727 35.5086 25.2095 35.5028 25.2531 35.4947C25.3392 35.4787 25.4576 35.4528 25.5911 35.4118C25.8284 35.3391 26.2453 35.1803 26.5696 34.8309L25.1036 33.4704C25.1375 33.4339 25.1246 33.4629 25.0048 33.4997C24.9597 33.5135 24.9177 33.5228 24.888 33.5283C24.8737 33.5309 24.8638 33.5324 24.8597 33.533C24.8577 33.5333 24.8573 33.5334 24.8585 33.5332C24.8592 33.5331 24.8603 33.533 24.8618 33.5328C24.8626 33.5327 24.8635 33.5326 24.8645 33.5325C24.865 33.5324 24.8656 33.5324 24.8661 33.5323C24.8664 33.5323 24.8667 33.5322 24.867 33.5322C24.8672 33.5322 24.8674 33.5322 24.8675 33.5322C24.8677 33.5321 24.8679 33.5321 24.9771 34.5261Z" fill="#6E777A" mask="url(#path-1-inside-1)"/>
</svg>
