<svg width="31" height="30" viewBox="0 0 31 30" fill="none" xmlns="http://www.w3.org/2000/svg">
<path fill-rule="evenodd" clip-rule="evenodd" d="M24.1674 19.16C28.8574 19.331 32.1143 26.464 28.0973 29.214C27.1043 29.894 25.8624 30.029 24.6084 29.982C15.1744 29.631 6.18336 23.586 2.30236 14.969C0.76336 11.552 -0.296668 7.77999 0.0743323 4.04999C0.404332 0.725988 5.16134 -1.40699 8.01134 1.33801C9.44034 2.74901 10.9284 4.19498 10.7804 6.22998C10.7134 7.13598 10.3514 8.01399 9.76336 8.71399L7.72436 11.114L5.43835 9.172C6.11635 8.374 6.79337 7.57601 7.47137 6.77802C7.89937 6.27401 7.87837 5.47602 7.42437 4.99402C6.45637 3.99102 5.62435 2.772 4.27135 3.026C2.94335 3.274 2.99734 5.259 3.19134 6.995C4.36734 17.511 13.7364 26.576 24.7194 26.984C25.8744 27.027 27.0534 26.616 27.0524 25.334C27.0514 24.264 25.8954 23.407 24.9434 22.514C24.4394 22.052 23.5863 22.06 23.0923 22.551L21.0854 24.621L18.9314 22.533C20.4534 20.963 21.8793 19.189 24.0033 19.158C24.0583 19.158 24.1124 19.159 24.1674 19.16ZM18.0524 9.87903L27.4914 0.439026C28.1984 1.14603 28.9063 1.85397 29.6133 2.56097L20.1733 12H30.0524V15H15.0524V0H18.0524V9.87903Z" fill="white"/>
</svg>
