<svg width="31" height="31" viewBox="0 0 31 31" fill="none" xmlns="http://www.w3.org/2000/svg">
<path fill-rule="evenodd" clip-rule="evenodd" d="M23.75 21.629L28.439 16.939C29.146 17.646 29.854 18.354 30.561 19.061L25.871 23.75L30.561 28.439L28.439 30.561L23.75 25.871L19.061 30.561L16.939 28.439L21.629 23.75L16.939 19.061L19.061 16.939L23.75 21.629ZM29.561 2.56097L2.56097 29.561L0.439026 27.439L27.439 0.439026C28.146 1.14603 28.854 1.85397 29.561 2.56097ZM9 6H15V9H9V15H6V9H0V6H6V0H9V6Z" fill="white"/>
</svg>
