<svg width="38" height="73" viewBox="0 0 38 73" fill="none" xmlns="http://www.w3.org/2000/svg">
<path fill-rule="evenodd" clip-rule="evenodd" d="M31 0H30V6.29291L27.4785 3.77142L26.7714 4.47853L29.2929 7H0V8H30V30H31V8.70712L33.3339 11.041L34.041 10.3339L31.7071 8H38V7H31V0ZM0 66H29.0643L26.7714 63.7071L27.4785 63L30 65.5215V43H31V66H38V67H31.4785L34.041 69.5625L33.3339 70.2696L31 67.9357V73H30V67H0V66ZM35 36.5C35 38.9853 32.9853 41 30.5 41C28.0147 41 26 38.9853 26 36.5C26 34.0147 28.0147 32 30.5 32C32.9853 32 35 34.0147 35 36.5ZM34 36.5C34 38.433 32.433 40 30.5 40C28.567 40 27 38.433 27 36.5C27 34.567 28.567 33 30.5 33C32.433 33 34 34.567 34 36.5Z" fill="#EDEDED"/>
</svg>
